<mxfile host="app.diagrams.net" modified="2020-05-13T16:55:56.630Z" agent="5.0 (Windows NT 6.1; Win64; x64) AppleWebKit/537.36 (KHTML, like Gecko) Chrome/71.0.3578.98 Safari/537.36" etag="4qGNSiTdQaBVMtWTM8xb" version="13.1.1" type="github">
  <diagram id="inYkrisZdpCWvH0mylS8" name="Page-1">
    <mxGraphModel dx="868" dy="482" grid="1" gridSize="10" guides="1" tooltips="1" connect="1" arrows="1" fold="1" page="1" pageScale="1" pageWidth="827" pageHeight="1169" math="0" shadow="0">
      <root>
        <mxCell id="0" />
        <mxCell id="1" parent="0" />
        <mxCell id="4Zabpoj7PgC8b4IljEoc-1" value="" style="image;html=1;labelBackgroundColor=#ffffff;image=img/lib/clip_art/people/Worker_Man_128x128.png" parent="1" vertex="1">
          <mxGeometry x="847" y="130" width="80" height="80" as="geometry" />
        </mxCell>
        <mxCell id="4Zabpoj7PgC8b4IljEoc-2" value="" style="image;html=1;labelBackgroundColor=#ffffff;image=img/lib/clip_art/people/Worker_Man_128x128.png" parent="1" vertex="1">
          <mxGeometry x="860" y="210" width="80" height="80" as="geometry" />
        </mxCell>
        <mxCell id="4Zabpoj7PgC8b4IljEoc-3" value="" style="image;html=1;labelBackgroundColor=#ffffff;image=img/lib/clip_art/people/Suit_Man_128x128.png" parent="1" vertex="1">
          <mxGeometry x="1050" y="100" width="80" height="80" as="geometry" />
        </mxCell>
        <mxCell id="4Zabpoj7PgC8b4IljEoc-4" value="" style="image;html=1;labelBackgroundColor=#ffffff;image=img/lib/clip_art/people/Suit_Man_Black_128x128.png" parent="1" vertex="1">
          <mxGeometry x="1080" y="180" width="80" height="80" as="geometry" />
        </mxCell>
        <mxCell id="4Zabpoj7PgC8b4IljEoc-5" value="" style="image;html=1;labelBackgroundColor=#ffffff;image=img/lib/clip_art/computers/Database_128x128.png" parent="1" vertex="1">
          <mxGeometry x="330" y="80" width="80" height="80" as="geometry" />
        </mxCell>
        <mxCell id="4Zabpoj7PgC8b4IljEoc-6" value="" style="image;html=1;labelBackgroundColor=#ffffff;image=img/lib/clip_art/computers/Database_128x128.png" parent="1" vertex="1">
          <mxGeometry x="290" y="160" width="80" height="80" as="geometry" />
        </mxCell>
        <mxCell id="4Zabpoj7PgC8b4IljEoc-7" value="" style="image;html=1;labelBackgroundColor=#ffffff;image=img/lib/clip_art/computers/Database_128x128.png" parent="1" vertex="1">
          <mxGeometry x="300" y="230" width="80" height="80" as="geometry" />
        </mxCell>
        <mxCell id="4Zabpoj7PgC8b4IljEoc-8" value="" style="image;html=1;labelBackgroundColor=#ffffff;image=img/lib/clip_art/computers/Database_128x128.png" parent="1" vertex="1">
          <mxGeometry x="330" y="300" width="80" height="80" as="geometry" />
        </mxCell>
        <mxCell id="4Zabpoj7PgC8b4IljEoc-9" value="" style="image;html=1;labelBackgroundColor=#ffffff;image=img/lib/clip_art/computers/Database_128x128.png" parent="1" vertex="1">
          <mxGeometry x="380" y="380" width="80" height="80" as="geometry" />
        </mxCell>
        <mxCell id="4Zabpoj7PgC8b4IljEoc-14" value="&lt;font size=&quot;1&quot;&gt;&lt;b style=&quot;font-size: 22px&quot;&gt;AS-IS Dados Automação MRS&lt;/b&gt;&lt;/font&gt;" style="text;html=1;resizable=0;autosize=1;align=center;verticalAlign=middle;points=[];fillColor=none;strokeColor=none;rounded=0;" parent="1" vertex="1">
          <mxGeometry x="55" y="20" width="330" height="20" as="geometry" />
        </mxCell>
        <mxCell id="YMRhmF-9sDAdHVnkn950-1" value="ORAJFP05&lt;br&gt;DW MRS" style="text;html=1;resizable=0;autosize=1;align=left;verticalAlign=middle;points=[];fillColor=none;strokeColor=none;rounded=0;textDirection=ltr;" parent="1" vertex="1">
          <mxGeometry x="400" y="470" width="80" height="30" as="geometry" />
        </mxCell>
        <mxCell id="YMRhmF-9sDAdHVnkn950-2" value="" style="image;html=1;labelBackgroundColor=#ffffff;image=img/lib/clip_art/computers/Laptop_128x128.png;align=left;" parent="1" vertex="1">
          <mxGeometry x="740" y="140" width="80" height="80" as="geometry" />
        </mxCell>
        <mxCell id="YMRhmF-9sDAdHVnkn950-7" value="Oracle Discoverer" style="text;html=1;resizable=0;autosize=1;align=center;verticalAlign=middle;points=[];fillColor=none;strokeColor=none;rounded=0;" parent="1" vertex="1">
          <mxGeometry x="725" y="220" width="110" height="20" as="geometry" />
        </mxCell>
        <mxCell id="YMRhmF-9sDAdHVnkn950-8" value="" style="image;html=1;labelBackgroundColor=#ffffff;image=img/lib/clip_art/computers/Laptop_128x128.png;align=left;" parent="1" vertex="1">
          <mxGeometry x="750" y="230" width="80" height="80" as="geometry" />
        </mxCell>
        <mxCell id="YMRhmF-9sDAdHVnkn950-10" value="MRS Consultas" style="text;html=1;resizable=0;autosize=1;align=center;verticalAlign=middle;points=[];fillColor=none;strokeColor=none;rounded=0;" parent="1" vertex="1">
          <mxGeometry x="740" y="310" width="100" height="20" as="geometry" />
        </mxCell>
        <mxCell id="YMRhmF-9sDAdHVnkn950-11" value="" style="image;html=1;labelBackgroundColor=#ffffff;image=img/lib/clip_art/people/Worker_Man_128x128.png" parent="1" vertex="1">
          <mxGeometry x="890" y="260" width="80" height="80" as="geometry" />
        </mxCell>
        <mxCell id="YMRhmF-9sDAdHVnkn950-12" value="" style="image;html=1;labelBackgroundColor=#ffffff;image=img/lib/clip_art/people/Worker_Woman_128x128.png;align=left;" parent="1" vertex="1">
          <mxGeometry x="870" y="330" width="80" height="80" as="geometry" />
        </mxCell>
        <mxCell id="YMRhmF-9sDAdHVnkn950-13" value="" style="image;html=1;labelBackgroundColor=#ffffff;image=img/lib/clip_art/computers/Server_128x128.png;align=left;" parent="1" vertex="1">
          <mxGeometry x="610" y="340" width="80" height="40" as="geometry" />
        </mxCell>
        <mxCell id="YMRhmF-9sDAdHVnkn950-15" value="Athus" style="text;html=1;resizable=0;autosize=1;align=center;verticalAlign=middle;points=[];fillColor=none;strokeColor=none;rounded=0;" parent="1" vertex="1">
          <mxGeometry x="625" y="390" width="50" height="20" as="geometry" />
        </mxCell>
        <mxCell id="YMRhmF-9sDAdHVnkn950-16" value="" style="edgeStyle=orthogonalEdgeStyle;html=1;endArrow=block;elbow=vertical;startArrow=none;endFill=1;strokeColor=#545B64;rounded=0;align=left;" parent="1" source="YMRhmF-9sDAdHVnkn950-19" edge="1">
          <mxGeometry width="100" relative="1" as="geometry">
            <mxPoint x="690" y="360" as="sourcePoint" />
            <mxPoint x="850" y="360" as="targetPoint" />
            <Array as="points">
              <mxPoint x="700" y="360" />
              <mxPoint x="700" y="360" />
            </Array>
          </mxGeometry>
        </mxCell>
        <mxCell id="YMRhmF-9sDAdHVnkn950-17" value="" style="edgeStyle=orthogonalEdgeStyle;html=1;endArrow=block;elbow=vertical;startArrow=none;endFill=1;strokeColor=#545B64;rounded=0;align=left;" parent="1" edge="1">
          <mxGeometry width="100" relative="1" as="geometry">
            <mxPoint x="691" y="371" as="sourcePoint" />
            <mxPoint x="851" y="371" as="targetPoint" />
            <Array as="points">
              <mxPoint x="701" y="371" />
              <mxPoint x="701" y="371" />
            </Array>
          </mxGeometry>
        </mxCell>
        <mxCell id="YMRhmF-9sDAdHVnkn950-18" value="" style="edgeStyle=orthogonalEdgeStyle;html=1;endArrow=block;elbow=vertical;startArrow=none;endFill=1;strokeColor=#545B64;rounded=0;align=left;" parent="1" edge="1">
          <mxGeometry width="100" relative="1" as="geometry">
            <mxPoint x="690" y="380" as="sourcePoint" />
            <mxPoint x="850" y="380" as="targetPoint" />
            <Array as="points">
              <mxPoint x="700" y="380" />
              <mxPoint x="700" y="380" />
            </Array>
          </mxGeometry>
        </mxCell>
        <mxCell id="YMRhmF-9sDAdHVnkn950-19" value="" style="verticalLabelPosition=bottom;shadow=0;dashed=0;align=center;html=1;verticalAlign=top;strokeWidth=1;shape=mxgraph.mockup.misc.mail2;strokeColor=#999999;" parent="1" vertex="1">
          <mxGeometry x="740" y="355" width="60" height="30" as="geometry" />
        </mxCell>
        <mxCell id="YMRhmF-9sDAdHVnkn950-21" value="Email" style="text;html=1;resizable=0;autosize=1;align=center;verticalAlign=middle;points=[];fillColor=none;strokeColor=none;rounded=0;" parent="1" vertex="1">
          <mxGeometry x="740" y="368" width="50" height="20" as="geometry" />
        </mxCell>
        <mxCell id="YMRhmF-9sDAdHVnkn950-25" value="" style="edgeStyle=orthogonalEdgeStyle;html=1;endArrow=block;elbow=vertical;startArrow=none;endFill=1;strokeColor=#545B64;rounded=0;" parent="1" edge="1">
          <mxGeometry width="100" relative="1" as="geometry">
            <mxPoint x="950" y="255" as="sourcePoint" />
            <mxPoint x="1060" y="210" as="targetPoint" />
            <Array as="points">
              <mxPoint x="960" y="255" />
              <mxPoint x="960" y="220" />
              <mxPoint x="1040" y="220" />
            </Array>
          </mxGeometry>
        </mxCell>
        <mxCell id="YMRhmF-9sDAdHVnkn950-29" value="" style="image;html=1;labelBackgroundColor=#ffffff;image=img/lib/clip_art/general/Full_Folder_128x128.png;align=left;" parent="1" vertex="1">
          <mxGeometry x="170" y="476" width="80" height="80" as="geometry" />
        </mxCell>
        <mxCell id="YMRhmF-9sDAdHVnkn950-31" value="Arquivos CSV, Excel, etc" style="text;html=1;resizable=0;autosize=1;align=center;verticalAlign=middle;points=[];fillColor=none;strokeColor=none;rounded=0;" parent="1" vertex="1">
          <mxGeometry x="160" y="581" width="150" height="20" as="geometry" />
        </mxCell>
        <mxCell id="YMRhmF-9sDAdHVnkn950-58" value="Bancos Transacionais&lt;br&gt;(Oracle e SQL Server)" style="text;html=1;resizable=0;autosize=1;align=center;verticalAlign=middle;points=[];fillColor=none;strokeColor=none;rounded=0;" parent="1" vertex="1">
          <mxGeometry x="380" y="240" width="130" height="30" as="geometry" />
        </mxCell>
      </root>
    </mxGraphModel>
  </diagram>
</mxfile>
